<?xml version="1.0" encoding="UTF-8"?>
<svg id="Livello_2" data-name="Livello 2" xmlns="http://www.w3.org/2000/svg" viewBox="0 0 136.95 136.64">
  <defs>
    <style>
      .cls-1 {
        fill: none;
      }
    </style>
  </defs>
  <g id="Nero">
    <g id="Logo_DI_con_testo" data-name="Logo DI con testo">
      <g id="Logo_DI" data-name="Logo DI">
        <path class="cls-1" d="M118.15,88.69c-.07.15-.16.32-.24.48s-.16.3-.24.48c-.61,0,.22-2.58.31-2.93.47-1.78,1.21-3.5,1.85-5.22.43-.06.22.52.18.78-.34,2.12-1.19,4.37-1.86,6.41Z"/>
        <path d="M119.85,88.66c4.9-13.64,4.99-28.23-.63-41.66C104.63,12.09,59.39,2.17,31.27,27.7c-16.82,15.27-22.37,39.75-14.16,60.98l-11.69,4.77c-.2.07-.37.04-.55-.07-1.23-.78-4.01-13.98-4.29-16.1C-6.1,24.92,46.16-14.95,95.1,5.43c32.76,13.64,50.14,51.85,37.93,85.54-.22.62-.75,2.51-1.31,2.51l-11.87-4.82ZM68.23,2.66c.41,2.59-.54,5.83-.25,8.28.03.24.11.83.37.83h3.84c.56,0,1.93-1.06,2.28-1.56.97-1.37,1.04-4.29.2-5.72-.35-.6-1.83-1.83-2.48-1.83h-3.96ZM56.64,3.44c-5.69.97-3.77,11.79,2.83,9.06,3.88-1.6,2.73-10.01-2.83-9.06ZM80.19,3.66c-.08-.12-1.07-.36-1.16-.27.1,1.19-1.95,8.72-1.68,9.1.05.07,1.34.34,1.44.25-.08-1.32,1.8-8.45,1.41-9.07ZM48.31,6.74c.46-.05,2.1-.42,2.29-.71.37-.53-.03-1.01-.67-.93s-4.92,1.58-5.54,1.92c-.59.32-.39.75-.01,1.17l2.73-.74c.7,2.17,1.35,5.12,2.34,7.13.3.6,1.31.2,1.26-.28-.12-1.07-2.69-7.25-2.4-7.57ZM85.97,14.38c.36-.25,2.32-7.33,2.87-8.29.13-.6-1.18-.7-1.38-.53-.32.27-2,7.11-2.62,8.06-.28.66.75,1.02,1.14.75ZM94.63,15.6c-.32-2.06.12-5.66-.54-7.49-.37-1.04-1.52-1.18-2.15-.1-.68,1.17-2.59,5.37-2.96,6.63-.27.9.3,1.64,1.06,1.17.3-.18,2.3-5.68,2.79-6.44.44,0,.32,7.76.9,8.33.28.28,1.02.39,1.38.19.54-.9,3.72-7.42,3.59-7.89s-.99-.55-1.31-.15l-2.76,5.75ZM41.32,8.68c-.47-.29-1.25.01-1.13.75.22,1.39,2.47,4.05,2.72,5.68-1.75-.66-4.29-3.48-5.87-3.96-.63-.19-1.71-.24-1.9.54-.15.63,3.32,6.94,3.96,7.96.43.13,1.05-.34,1.01-.78-.11-1.21-2.99-4.48-2.96-6.15,1.88,1.01,4.54,3.73,6.44,4.37,1.08.37,1.67-.53,1.26-1.51-.84-.73-3.18-6.7-3.52-6.91ZM101.35,16.32c.57-.75,1.1-2.64,2.17-2.29.2.06,3.48,2.57,2.85.52-.07-.22-3.47-2.38-3.89-2.27-.56.14-4.25,6.57-4.96,7.5,1.57,2.04,2.38-2.27,3.26-2.48.55-.13,2.84,2.33,3.21,1.06.22-.77-2.04-1.73-2.64-2.04ZM31.97,13.94c-.45-.33-4.33,2.37-4.27,2.94.04.39,3.89,5.77,4.43,6.37.25.28.51.75.94.75.25,0,4.02-2.7,3.95-2.99-.41-1.84-3.18,1.78-4.04,1.27-.14-.08-1.02-2-1.45-2.25.43-.69,2.61-1.49,2.38-2.39-.29-1.14-2.46,1.23-3,1.26-.28-.02-1.52-1.74-1.5-1.98.04-.59,2.55-1.71,2.8-2.07.12-.18-.22-.65-.23-.91ZM108.73,18.06c-1.45.25-3.78,2.61-4.14,4.01-.9,3.49,3.1,6.45,6.21,4.52.72-.45,2.26-2.14,2.6-2.91,1.34-3.05-1.56-6.14-4.67-5.62ZM24.31,22.07c.45-.1.57.25.84.48.91.75,3.55,3.92,4.37,4.04.4.06,1.08-.3.91-.69-.82-.75-5.94-6-6.49-6-.5,0-1.31,1.04-1.27,1.53l2.83,6.63-6.64-2.58c-.76-.07-2.06,1.25-1.29,2,1.03.56,5.57,5.62,6.13,5.63.65,0,.72-.69.48-1.21-.61-1.32-4.09-3.25-4.92-4.79,1.72.11,6.01,2.92,7.33,2.86.56-.03,1-.65.73-1.18l-3.02-6.71ZM116.71,30.94c2.41,1.38,4.58-.7,3.4-3.28-.33-.71-1.81-2.96-2.67-2.35-.67.83-6.41,4.66-6.5,5.06-.14.61.12,1.12.8,1.01,1.18-.19,3.33-3.73,3.76-1.03.3,1.83-1.69,3.07-1.67,4.06.01.56.82,1.24,1.25.53.73-1.19,1.66-2.57,1.62-4.01ZM14.02,31.62c1.51.51,5.96,4.72,7.06,4.83.9.09,1.06-.55.47-1.21-1.42-1.56-4.83-3-6.44-4.61-.58-.48-1.39.47-1.09.99ZM120.31,40.52l4.62-5.34c.42-.45-.28-1.94-.7-2.07-1,.36-7.92,3.52-8.02,3.96-.14.61.11,1.12.8,1.02.77-.12,5.65-3.11,5.93-2.84.1.45-.25.57-.48.84-.88,1.06-3.8,3.74-4.21,4.69-.13.31-.04,1.02.16,1.15.59.38,7.13-.72,8.36-.68l-6.49,3.47c-.39.29-.08.66.03,1.06.4.13.74-.04,1.11-.17,2.29-.79,5.05-2.72,7.29-3.8-.03-.67-.65-1.66-1.35-1.77-.9-.14-3.44.43-4.55.48-.84.04-1.68-.02-2.52,0ZM18.55,41.72c.15-.11.39-1.3-.11-1.45l-6.27-3.58c-.11-.17,2.22-3.85.13-2.77-.26.13-2.77,4.5-2.93,4.99-.1.33-.32.52-.08.9.69,1.08,1.69-1.3,1.82-1.91,1.12,0,6.97,4.17,7.43,3.83ZM16.63,45.08h-4.2c-.14,0-.77.58-.84.48.26-2.51-2.75-3.57-4.29-1.52-.41.54-1.39,2.91-1.25,3.52.1.42,7.14,2.69,8.07,3.28,2.47-1.4-3.07-2.37-3-2.75.43-1.36,1.16-1.67,2.51-1.8s3.15.67,3-1.2ZM123.68,55.13c.21.15.79-.12,1.04-.26,2.07-1.19,4.24-3.86,6.41-5.1.29-.35.36-1.24.12-1.59-.32-.45-8.58-.49-9.74-.46v1.2c.69.11,2.35-.27,2.76.23.19.22,1.14,3.38,1.04,3.56-.09.15-1.56.83-1.78,1.24-.14.27.04,1.11.15,1.19ZM13.75,52.74l-9.19,1.01c-.63.21-.8.86-.62,1.45.14.46,7.53,5.3,8,5.2.28-.06.4-.53.37-.83-.1-.96-1.66-.94-1.89-1.74-.15-.53.41-3.29.92-3.55,1.04-.51,2.76.7,2.4-1.55ZM133.75,60.41c.04-.94-.8-6.83-1.34-6.93-1.71-.34.03,2.62-.57,2.99-.96.36-7.41,1.04-7.68,1.32-.1.11.03.91-.01,1.19.39.4,7.05-1.21,8.15-1.19.38,1.04-.15,3.02,1.45,2.63ZM8.47,64.96c.82-7.07-7.57-5.76-5.53.85l8.9.58c.51-2.01-1.99-1.31-3.36-1.44ZM134.23,64.24c.25-1.48-.93-1.27-2.05-1.21-2.3.13-4.6.54-6.91.52-.59.19-.57,1.18,0,1.37l8.97-.68ZM126.79,74.07c.24-.23-.69-1.71-.73-2.28-.3-4.24,7.18-3.72,7.18-.24,0,.73-1.59,2.83-.36,2.73,1.53-.13,1.64-3.13,1.23-4.28-1.25-3.59-8.68-3.67-9.22.62-.11.88.04,2.45.68,3.11.27.27,1.02.53,1.21.34ZM11.83,70.71c0-.58.18-1.37-.6-1.44l-8.16.24c-.39.03-.58.2-.62.6-.15,1.49,2.14.61,3,.59,2.12-.07,4.25.07,6.37,0ZM3.7,80.98c.39.24,8.71-.78,8.99-1.15-.13-4.12-.88-6.68-5.55-6.25-4.18.38-4.4,4.08-3.44,7.4ZM123.43,82.93c2.57-.62,6.63-.56,8.99-1.44.71-.27,1.09-.71.82-1.51-.21-.61-6.73-3.8-7.66-4.58l-.95-.13c-.55,1.69,1.41,1.52,1.8,2.15.29.48-.15,3.56-.41,3.79-.63.56-3.16-.46-2.59,1.72Z"/>
        <path d="M118.88,90.14l12.48,4.92c-7.2,17.27-21.88,31.11-39.49,37.49-32.19,11.65-68.19-2.28-84.01-32.35-.38-.73-2.29-4.46-2.28-4.93,0-.3.13-.45.41-.54l11.67-4.58c1.85,3.41,3.56,6.84,5.82,10.01,15.18,21.3,43.25,29.13,67.38,18.44,12.34-5.46,22.95-15.95,28.01-28.47ZM92.69,121.5c.2-.23-.01-1.28-.57-1.18-.7.53-6.05,1.97-6.14,2.28-.61,2.22,2.47-.09,3.01.59l2.77,7.43c.44-.23,1.18-.23,1.19-.82l-2.65-7.42c.05-.31,2.32-.78,2.4-.88ZM45.54,120.61c-.32.05-2.33,5.22-2.45,5.87-.33,1.72-.09,3.03,1.45,3.95,1.8,1.07,3.82,1,5.02-.84.51-.78,2.03-4.73,2.24-5.67.25-1.09-.18-1.58-1.21-.96-.79,1.51-1.67,6.52-3.41,6.9-1.3.28-2.85-.64-2.94-2.01s2.45-5.8,2.36-6.7c-.02-.2-.89-.56-1.06-.53ZM84.23,122.98c-.29.02-.92.42-.85.76l2.48,8.32c.85.58,1.41.22,1.28-.78-.16-1.21-1.73-6.43-2.23-7.61-.13-.3-.23-.73-.68-.69ZM57.67,131.82c-.71-2.08-1.11-5.5-2.11-7.36-.38-.71-1.28-1.17-1.98-.68-.38.26-1.7,7.87-1.88,8.97.43.14.97.48,1.3.03.46-.63.95-5.14,1.31-6.36.08-.26.1-.75.49-.35.34.36,1.4,6.48,2.18,7.53.26.35,1.23.7,1.56.41.35-.31,2.33-8.77,2.01-9.12-.14-.16-1.58-.44-1.42.36l-1.45,6.58ZM80.23,133.97c.54-.53-3.86-7.65-4.2-8.87-.35-.34-1.16-.36-1.57-.12-.54.31-2.11,8.68-2.15,9.95,1.83.19,1.29-1.79,1.82-2.89,1.09.2,2.5-.54,3.54-.19.86.3.9,2.74,2.56,2.11ZM63.91,125.11h-1.44s-.72,9.35-.72,9.35l1.21-.15.95-9.19ZM70.63,127.02c.4-2.5-3.87-2.31-4.77-.57-1.9,3.67,3.81,3.81,3.83,5.71.02,1.41-1.33,1.76-2.48,1.51-.43-.09-2.16-1.34-2.06-.1.14,1.74,5.49,2.2,5.95-.94.51-3.46-3.99-2.99-4.08-5.01-.12-2.62,3.46-.44,3.61-.61ZM81.94,133.22c1.06.66,2-.97,1.18-1.54-1.27-.89-1.9,1.09-1.18,1.54Z"/>
        <path d="M81.34,76.14c-.82.82-2.32,1.68-3.46,1.94-11.5,2.69-18.81-22.82-9.03-27.23,11.27-5.08,19.99,17.79,12.48,25.28ZM71.04,53.27c-.33.08-.51.25-.77.43-5.21,3.59-.63,19.31,4.75,20.9,5.07,1.5,6.21-4.62,5.93-8.32-.35-4.5-4-14.36-9.91-13.01Z"/>
        <path d="M60.02,85.88c6.79-.61,12.92,8.06,11.99,14.37-.51,3.44-3.55,4.95-6.79,4.74-3.89-.25-7.72-4.19-9.2-7.59-1.86-4.27-1.97-10.99,3.99-11.52ZM61.19,88.78c-1.28.02-2.73.86-3.12,2.11-1.38,4.43,3.71,14.08,9.1,11.96,3.1-1.22,1.75-6.14.7-8.4s-3.89-5.72-6.68-5.66Z"/>
        <path d="M36,62.14c4.54-1.03,6.86,6.06,7.73,9.43.75,2.89,2.48,13.02-1.59,13.95-4.53,1.04-7.86-5.24-8.88-8.76s-2.17-13.5,2.74-14.62ZM36,65.01c-1.07.32-1.72,2.95-1.82,3.93-.32,3.23.99,8.58,2.75,11.33.9,1.41,3.37,4.03,4.76,1.68,1.69-2.84-.53-12.13-2.31-14.92-.73-1.15-1.83-2.5-3.39-2.03Z"/>
        <path d="M54.07,55.14c1.4,6.75,2.74,13.51,4.68,20.13.28.94,2.24,6.05,1.8,6.47l-3.36.48-5.05-18.44c-.43-.37-4.95,1.71-5.27,1.43l-.48-2.63c1.82-.31,3.86-1.76,4.51-3.53.81-2.19-.16-3.56,3.17-3.91Z"/>
        <path d="M49.69,34.35c7.19-1.13,8.35,8.14,6.49,13.19-1.71,4.63-7.74,8.1-11.46,3.4-3.91-4.93-1.89-15.51,4.97-16.59ZM49.45,36.26c-5.89.86-5.28,14.09-.06,14.09,2.05,0,3.63-2.19,4.21-3.95,1.03-3.12.55-10.83-4.15-10.14Z"/>
        <path d="M97.2,74.6c1.24-.26,2.3-.07,3.3.67,5.04,3.7,3.9,18.07-2.63,19.9-5.57,1.56-6.37-6.49-6.14-10.21.19-3.07,1.95-9.62,5.46-10.36ZM98.17,77.47c-4.61.39-4.53,11.61-2.58,14.45,1.17,1.71,2.95,1.29,4.18-.14,2.31-2.66,2.24-8.65,1.04-11.79-.4-1.06-1.31-2.64-2.64-2.53Z"/>
        <path d="M79.21,28.13c5.52-.75,11.01,6,12,10.9.53,2.64-.14,5.26-3.21,5.55-4.93.46-10.76-6.15-11.92-10.57-.75-2.84-.15-5.43,3.13-5.88ZM80.17,29.79c-4.05.81.08,7.55,1.62,9.29,3.17,3.59,8.71,4.71,6.62-1.81-.92-2.85-4.77-8.18-8.24-7.48Z"/>
        <path d="M101.04,46.08c2.98-.67,5.7,3.81,6.75,6.09,1.56,3.38,3.47,10.45,1.34,13.73-3.7,5.73-8.12-5.77-8.87-8.38-.67-2.36-2.71-10.67.77-11.45ZM102.47,48.48c-1.01.09-1.36,1.9-1.38,2.71-.05,2.74,2.46,11.96,5.12,13.11,2.81,1.22,2.25-4.14,2.03-5.62-.32-2.2-2.92-10.44-5.78-10.2Z"/>
        <path d="M91.47,47.27c.4.25,2.88,7.79,3.22,8.88.51,1.63,3.96,13.48,3.53,14.07-.07.1-1.95.57-2.29.73l-4.67-16.75c-.72-.34-4.82.86-5.02.71-.1-.07-.69-2.04-.72-2.29-.06-.53.05-.26.35-.35,3.23-.99,3.77-1.29,3.48-5.03.51.1,1.78-.17,2.12.04Z"/>
        <path d="M86.69,99.45l-3.1.98-2.39-12.36c-.44-.34-4.3,1.43-5.17,1.35-.76-.06-.71-1.29-1.04-1.85l4.28-2.36c1.36-1.04,1.03-4.25,2.4-4.8.45-.18,1.77-.54,1.88.05l3.14,18.98Z"/>
        <path d="M69.93,46.25l-4.14-11.92c-.81-.39-4.94,1.24-5.25.93.11-.36-.37-1.55-.24-1.68s2.42-.44,3.35-1.1c1.56-1.11,1.15-3.94,3.84-2.36l5.98,15.36c.05.78-2.87.82-3.54.76Z"/>
        <path d="M84.49,102.65c5.13-.74,7.81,3.95,4.72,8.06-3.47,4.62-12.79,4.22-10.97-3.05.64-2.55,3.76-4.65,6.26-5.01ZM84.01,104.56c-4.18.68-4.91,7.96-.29,8.1,5.23.16,6.67-9.13.29-8.1Z"/>
        <path d="M31.68,89.45c2.66-.78,6.37,4.49,7.61,6.44.94,1.48,4.96,8.28,2.54,9.44-2.97,1.43-7.94-4.86-9.22-7.09-.93-1.62-3.74-7.97-.93-8.8ZM32.49,91.82c-.76,3.17,1.73,7.36,3.83,9.68,3.84,4.24,5.14,2.33,2.92-2.43-1.16-2.48-3.72-7.25-6.74-7.24Z"/>
        <path d="M46.11,88.24c.23.15,1.62,4.3,1.99,5.08,1.33,2.89,2.91,5.97,4.4,8.79.29.55,2.17,3.23,1.8,3.59-.74-.1-1.97.26-2.52-.24l-5.88-10.9c-.72-.43-3,.11-3.92-.11-.09-.02-.82-1.4-.87-1.58-.14-.49.12-.29.34-.35,3.47-1.03,2.02-.98,2.53-3.71.14-.77,1.74-.81,2.13-.56Z"/>
        <path d="M26.88,46.79c1.46-.31,1.86,1.19,2.12,2.34.75,3.39.12,10.86-1.77,13.84-.84,1.32-2.32,2.31-3.51.78-2.46-3.16-1.27-12.07,1.06-15.2.35-.47,1.55-1.64,2.09-1.76ZM26.93,48.93c-2.04-.02-2.78,3.04-3.07,4.68-.43,2.48-.68,6.66,1.32,8.46,1.62.27,2.43-5.74,2.5-6.8.13-2.08.1-4.41-.75-6.34Z"/>
        <path d="M37.75,39.8l.49,17.57c-.7.38-2.16,1.52-2.41.28l-.48-12.1c-.25-.28-2.6,1.55-3,1.67-.56.17-.42-1-.36-1.32.09-.47,1.81-1.51,2.39-2.16,1.37-1.55,1.21-3.61,3.37-3.94Z"/>
        <path d="M61.47,19.97c2.04-.05,5.35,1.11,5.93,3.29,1.6,6.05-9.93,7.77-12.01,2.64-1.54-3.8,2.94-5.85,6.08-5.93ZM60.5,20.93c-5.03.55-3.59,6.9,1.61,6.41,4.93-.46,3.41-6.96-1.61-6.41Z"/>
        <path d="M51.12,107.91c3.23-.72,7.69,1.65,9.92,3.89,1.3,1.31,3.26,4.16.61,5.18-3.47,1.33-13.02-3.63-11.74-7.88.18-.61.58-1.05,1.22-1.19ZM53.04,109.34c-2.8.6.7,4.28,1.74,5.11,1.2.96,5.9,3.31,5.78.48-.1-2.33-5.18-6.1-7.52-5.59Z"/>
        <path d="M27.43,66.4c.85,6.79,2.93,13.28,4.56,19.89l-1.66-.02-3.63-13.4-2.15.72c-1.17-2.4.56-1.92,1.25-3.66.53-1.35-.09-3.44,1.63-3.53Z"/>
        <path d="M110.47,69.28c.07,2.51.61,5.03.73,7.54s.31,7.13,0,9.37c-.12.85-.87,1.35-1.69,1.54l-.24-11.98c-.47.16-2.58,1.49-2.88,1.2-.71-2.39.25-1.77,1.41-3.02.7-.76.97-1.67,1.17-2.67.24-1.24-.44-2.21,1.5-1.98Z"/>
        <path d="M32.05,39.74c-1.75-1.64.67-6.59,1.9-8.16.98-1.26,4.07-3.9,5.71-3.15,2.47,1.12-.09,6.55-1.23,8.1-.99,1.35-4.64,4.84-6.38,3.21ZM37.45,29.79c-2.22.43-4.98,5.87-4.13,7.86.68,1.59,2.67-.15,3.36-.95,1.08-1.27,4.16-7.57.78-6.91Z"/>
        <path d="M115.92,65.96c1.75-.47,2.62,3.62,2.72,4.87.21,2.61.22,10.42-2.28,11.88-1.3.76-1.71-.62-1.98-1.64-.78-2.91-.72-11.62.71-14.25.17-.31.49-.77.84-.86ZM115.75,80.78c1.27.85,2.09-3.73,2.15-4.44.11-1.25.15-7.75-1.34-8.01-1.04-.18-1.49,3.93-1.53,4.66-.06,1,.27,7.48.72,7.78Z"/>
        <path d="M24.54,87.48c-2.03.26-2.97-2.11-3.63-3.66-1.12-2.64-3.04-9.93-1.82-12.45s2.75.98,3.25,2.16c1.69,4.01,2.78,9.64,2.21,13.95ZM20.11,72.63c-.31.07-.31.59-.38.82-.76,2.5,1.13,9.11,2.61,11.33.6.9,1.14.76,1.26-.28.23-1.92-1.61-9.11-2.53-10.92-.16-.31-.52-1.05-.96-.96Z"/>
        <path d="M109.69,90.16c3.13-.52,1.47,5.2.89,6.66-.69,1.77-3.93,7.11-6.19,6.44-1.65-.49-.26-4.83.13-6.02.64-1.95,2.96-6.72,5.16-7.09ZM105.43,101.63c2.89.22,5.35-6.63,4.69-8.64-.8-2.42-3.11,1.53-3.53,2.49-.86,1.95-1.35,4.01-1.16,6.15Z"/>
        <path d="M71.88,115.95c-.47-.27-2.45-5.06-2.93-5.34-.95-.58-3.62.4-4.8.12.05-.28-.09-1.08.01-1.19.11-.12,2.42-.25,3.1-.86.59-.52.54-1.82.89-2.04s1.62-.34,1.99-.12c.56.34,3.46,7.74,4.08,8.88.08.79-2.04.72-2.35.54Z"/>
        <path d="M99.91,30.22c3.11-.04,6.17,3.6,7.78,6.01.75,1.13,3.88,6.66,2.06,7.54-1.59.77-5.13-3.96-5.95-5.09-1.72-2.36-4.03-5.48-3.89-8.46ZM108.79,41.72c.18-2.21-1.41-4.56-2.68-6.31-1.11-1.52-2.55-3.39-4.51-3.76.41,2.31,1.79,4.66,3.16,6.54.45.62,3.29,4.26,4.03,3.52Z"/>
        <path d="M102.31,43.16c-.59-.04-1.32.19-1.8-.24-.44-.39-2.4-4.92-2.96-5.92-.86-1.55-1.94-2.98-2.74-4.57-1.54-.78-3.96.62-4.26-1.74,1.49-.38,2.47.13,2.16-1.92,1.87-.31,2.93,2.09,3.84,3.47,1.34,2.02,2.83,4.45,3.96,6.59.33.62,2.14,3.96,1.8,4.32Z"/>
        <path d="M100.39,96.12c.35.37-.73,9.06-1.03,10.11s-.86,1.69-2.09,1.63l.48-6.47-3.48,1.44c-.74-1.68.9-1.69,2.02-2.54.37-.28,1.08-.93,1.35-1.29.83-1.12.88-2.8,2.75-2.88Z"/>
        <path d="M92.2,26.84c-3.2.84-7.13-1.49-9.45-3.58-2.91-2.61-3.68-5.27,1.42-3.81,2.96.84,8.58,3.72,8.03,7.39ZM90.31,25.67c.25-1.45-1.37-2.87-2.42-3.69-1.32-1.04-3.74-2.59-5.4-1.83-.67.9,2.67,3.54,3.42,4.05,1.31.89,2.75,1.74,4.4,1.48Z"/>
        <path d="M111.4,46.07c1.03,3,2.21,5.96,3.08,9.02.3,1.06,1.9,7.02,1.72,7.56-.13.41-.97.55-1.16.39-.47-.39-1.8-10.38-3.01-11.73-.64-.77-2.57.74-2.72-1.6-.04-.7,1.09-.6,1.17-.95.26-1.08-.74-3.21.92-2.68Z"/>
        <path d="M49.75,23.27c-.07,2,.42,4.13.49,6.1.08,2.19.23,3.25-2.41,3.25l-.24-6.47c-.12-.13-2.67,1.13-3.25,1.19-.48.05-.48-.28-.34-.59.17-.39,1.91-.98,2.47-1.36,1.09-.75,1.73-2.3,3.28-2.12Z"/>
        <path d="M119.83,61.37c-.64.07-.91,0-1.31-.49-1.24-1.51-3.55-9.51-3.9-11.68-.97-5.93,2.08-1.3,3.1.98,1.47,3.3,2.65,7.6,2.12,11.18ZM115.63,48.19c-.26,1.44,2.49,11.23,3.36,11.25,1.03.03-.33-4.97-.48-5.51-.55-1.95-1.34-4.38-2.88-5.75Z"/>
        <path d="M80.23,26.38c-.64-.06-1.42.11-2.03,0-1.39-.26-3.62-5.91-5.27-5.95-.87-.02-3.3.91-3.49-.51.76,0,1.92-.07,2.58-.42s.64-1.35,2.21-.65c.58.26,2.81,2.92,3.35,3.6.29.36,2.88,3.74,2.65,3.94Z"/>
        <path d="M33.43,103.54c-.55.05-1.08-.28-1.44-.66-1.78-1.88-3.17-6.13-4.79-8.33-.67-.67-2.23-.36-2.19-1.67.01-.52.43-.8.49-1.21.14-.93-.46-2.74.84-1.78l7.09,13.65Z"/>
        <path d="M50.95,116c-.93.08-1.66-.34-2.38-.86-1.42-1.01-3.9-4.43-5.07-5-.98-.47-3,.07-2.87-1.57h1.44s-.24-1.44-.24-1.44c1.14-.98,4.24,3.81,4.92,4.55,1.34,1.48,2.95,2.74,4.2,4.31Z"/>
        <path d="M74.42,116.79c1.32-.13,5.66-.14,5.05,1.92s-8.71,2.54-9.77.98c-1.29-1.9,3.5-2.78,4.72-2.9ZM74.42,117.5c-.77.06-3.47.71-2.73,1.86.79,1.22,5.77.78,6.12-.4.38-1.27-2.55-1.53-3.39-1.47Z"/>
        <path d="M42.55,113.61c-3.13-.21-6.7-3.51-8.63-5.88-.55-.68-2.62-3.34-.42-2.95,1.74.31,8.41,6.2,8.95,7.85.11.32.15.63.11.97ZM41.11,112.65c.46-.45-2.44-3.31-2.88-3.72-.58-.54-3.67-3.24-4.32-2.75.7,1.53,1.87,2.84,3.12,3.95.5.44,3.65,2.94,4.08,2.51Z"/>
        <path d="M27.91,101.38c-.1.09-.73-.02-.95-.12-1.78-.85-5.95-8.55-6.22-10.56-.06-.43-.02-.87-.02-1.3.69-.76,3.51,3.77,3.79,4.24.57.93,4,7.17,3.4,7.74ZM26.71,99.95c.5-.54-3.48-7.31-4.22-8.12-.24-.27-.35-.6-.82-.5-.51.53,3.45,7.27,4.22,8.12.24.27.35.6.82.5Z"/>
        <path d="M19.51,57.3l-.96.72c-.04-.42,0-.8.11-1.2.16-.56,1.34-3.46,1.6-3.91.14-.24.4-.56.68-.63-.31,3.95-.61,7.88-.49,11.87.02.67.7,2.97-.11,3.22-.29.09-.84-.15-.84-.36v-9.7Z"/>
        <path d="M50.66,18.78c.67-.06,2.14-.2,2.23.78.16,1.68-5.47,3.93-6.92,4.12-.88.12-3.06.27-2.6-1.14.54-1.67,5.61-3.6,7.29-3.76ZM45.27,21.43c-1.16,1.36,1.25,1.21,2.14,1.07.85-.14,3.87-1.33,3.54-2.45-.37-1.26-4.95.54-5.68,1.38Z"/>
        <path d="M97.51,112.41c-.89,1.01-3.6,2.89-4.93,2.89-2.54,0,1.41-3.67,2.05-4.21,1.5-1.27,3.76-2.8,5.76-2.75.24,1.78-1.46,3.33-2.88,4.07.35-.84,2.93-3.32.23-2.52-.92.27-4.94,3.1-4.07,3.96.59.59,2.6-1.02,3.14-1.31.27-.14.6-.08.7-.13Z"/>
        <path d="M24.31,40.28c.69.71-1.81,7.42-2.36,8.55-.28.58-1.87,3.76-2.68,3.19-.87-.62,1.39-6.74,1.88-7.83.22-.49,2.31-4.79,3.16-3.91ZM23.35,41.72c-.61-.14-.42.17-.62.45-1.5,2.12-2.26,5.41-2.74,7.93.43.08.6-.21.82-.49.73-.91,3.12-7.12,2.53-7.89Z"/>
        <path d="M25.99,45.07l1.68-6.83-1.09.83-.35-.35c.43-.34,3.48-4.89,3.83-4.44-.5,2.1-1.21,4.15-1.8,6.23-.43,1.53-.3,4.45-2.28,4.55Z"/>
        <path d="M116.95,84.13c-.18,2.69-.74,5.54-1.62,8.09-.42,1.23-.91,2.86-1.98,3.65.26-1.97,1.57-4.15,1.68-6.11.06-1.1-1.16.68-1.44.36.02-1.12,1.04-1.87,1.56-2.87.46-.88.68-1.88,1.17-2.67.2-.32.03-.57.62-.45Z"/>
        <path d="M120.55,63.29c1.35,1.36.38,11.36.48,13.66-.69.11-.4-.15-.51-.55-.39-1.38.49-7.57-.21-8.07-.04-.03-.69.34-.96.24-.26-1.15.54-1.98.7-3.02.04-.28-.19-2.94.5-2.25Z"/>
        <path d="M16.39,59.93c.06-.29-.08-.72.01-1.05.34-1.21,1.01-2.27,1.19-.27.23,2.61.04,7.65-.27,10.28-.04.34-.52,2.54-1.17,2.06-.54-.39-.51-5.3-.48-6.23h.24c-.07,1.37.01,2.72.24,4.07.33-.04.41-.32.47-.61.51-2.76.13-5.81.25-8.61-.34-.39-.21.2-.24.36h-.24Z"/>
        <path d="M65.13,17.02c-.94-1.35,2.52-1.44,3.22-1.43,1.39.01,4.6.33,5.76.96.8.43.92.82,0,1.23-1.15.51-8.35.17-9-.76ZM70.75,16.08c-1.02-.14-2.51,0-3.6,0-.03,0-.48.35-.24.48.43.95,4.44,1.11,5.41.84.31-.09.57-.06.47-.48-.13-.25-1.73-.8-2.04-.84Z"/>
        <path d="M20.47,87.01c-.62.12-.42-.13-.6-.47-1.3-2.38-1.76-6.31-2.51-8.96-.13-.29-.67-.02-.75-.29-.29-1.01.19-3.29.26-4.42l3.6,14.14Z"/>
        <path d="M87.9,113.37c.56.38.28,5.33-1.91,4.54v-2.15c-1.22.18-2.33.88-3.6.72.61-.84,1.81-.96,2.71-1.48.59-.34,2.27-1.98,2.8-1.62Z"/>
        <path d="M117.67,89.64c-.24.53-.12,1.9-1.2,1.32.47-2.41,1.07-4.87,1.92-7.19.18-.5,1.53-3.8,1.71-3.92,1.23-.78.45,2.02.33,2.61-.52,2.49-1.26,4.06-2.28,6.23.67-2.04,1.52-4.29,1.86-6.41.04-.25.26-.83-.18-.78-.65,1.72-1.38,3.44-1.85,5.22-.09.34-.92,2.93-.31,2.93Z"/>
        <path d="M117.67,89.64c.08-.17.16-.32.24-.48-.06.16.14.48-.24.48Z"/>
        <path d="M117.91,89.17c.08-.16.17-.32.24-.48-.07.23-.19.35-.24.48Z"/>
        <path d="M114.79,44.35c-.54.05-.89-.5-1.16-.88-1.36-1.93-2.66-5.85-4.25-7.5-.97-1-2.5-.8-1.79-2.89,1.44.57,7.66,10.77,7.2,11.26Z"/>
        <path d="M56.71,120.31l.96-.71c-2.18-.77-4.34-2.19-6.72-2.16-.38.27,4.13,2.22,4.56,2.16.06.42-.54.23-.78.18-.58-.13-1.41-.44-1.98-.66-.3-.11-4.18-1.8-3.47-2.4,2.51-.04,5.51.85,7.76,1.95,2.43,1.18,3.14,2.25-.32,1.64Z"/>
        <path d="M63.84,117.99c.15.12.21.48.42.64,1.07.81,2.36,1.45,3.24,2.4-1.93.51-3.07-1.14-4.5-1.61-.52-.17-4.01-.3-3.66-.78.62-.28,1.4-.14,1.98-.3.73-.21,1.39-1.26,2.51-.35Z"/>
        <path d="M99.67,27.58l-1.44-.12-3.12-3.83c-.16-.31-2.85.37-2.4-.48.22-.47,1.02-.26,1.17-.4s-.31-1.16.98-.55c1.17.55,3.92,4.2,4.8,5.38Z"/>
        <path d="M108.31,103.54c-.44,1.68-1.06,4.15-3.12,4.31l.48-1.67c-.65-.22-2.46,1.29-2.88.95s.32-.53.45-.62c.84-.59,1.85-1,2.75-1.58.76-.49,1.23-1.53,2.32-1.4Z"/>
        <path d="M61.99,19.19c-.61-.16-1.5.37-2,.22-.59-.19-.67-1.65-1.28-1.86s-1.28.15-1.88.2c-.26.02-.9.17-.83-.24,2.82-.72,5.08-2.15,6,1.67Z"/>
        <path d="M41.59,23.27c-.79.84-1.69,3.05-2.39,3.72-1.66,1.61-.53-1.34.23-1.93.06-.21-.56-.01-.48-.23.09-.26,2.37-1.77,2.64-1.56Z"/>
        <path d="M16.63,59.93c-.37,1.63-.39,2.78-.5,4.41-.01.19-.22.34-.22.38h-.24c.06-1.94.34-3.02.72-4.79h.24Z"/>
        <path class="cls-1" d="M120.31,40.52c.84-.02,1.68.04,2.52,0,1.11-.06,3.65-.62,4.55-.48.7.11,1.33,1.09,1.35,1.77-2.23,1.08-5,3.01-7.29,3.8-.36.12-.71.29-1.11.17-.11-.39-.42-.77-.03-1.06l6.49-3.47c-1.23-.04-7.77,1.06-8.36.68-.2-.13-.3-.83-.16-1.15.4-.95,3.33-3.63,4.21-4.69.22-.27.58-.39.48-.84-.28-.28-5.17,2.72-5.93,2.84-.69.11-.94-.41-.8-1.02.1-.44,7.02-3.6,8.02-3.96.42.12,1.12,1.62.7,2.07l-4.62,5.34Z"/>
        <path class="cls-1" d="M24.31,22.07l3.02,6.71c.27.54-.17,1.16-.73,1.18-1.32.06-5.61-2.75-7.33-2.86.83,1.54,4.3,3.48,4.92,4.79.24.51.17,1.21-.48,1.21-.56,0-5.1-5.07-6.13-5.63-.77-.75.53-2.06,1.29-2l6.64,2.58-2.83-6.63c-.04-.48.77-1.53,1.27-1.53.55,0,5.67,5.24,6.49,6,.17.39-.51.75-.91.69-.83-.12-3.46-3.29-4.37-4.04-.27-.22-.39-.58-.84-.48ZM24.19,21.59v.24c.16-.08.16-.16,0-.24Z"/>
        <path class="cls-1" d="M94.63,15.6l2.76-5.75c.32-.4,1.17-.34,1.31.15s-3.05,6.99-3.59,7.89c-.37.2-1.1.09-1.38-.19-.57-.57-.45-8.32-.9-8.33-.49.76-2.49,6.25-2.79,6.44-.77.47-1.33-.27-1.06-1.17.38-1.26,2.28-5.46,2.96-6.63.63-1.08,1.78-.94,2.15.1.66,1.83.21,5.43.54,7.49Z"/>
        <path class="cls-1" d="M41.32,8.68c.34.21,2.68,6.18,3.52,6.91.41.99-.17,1.88-1.26,1.51-1.9-.65-4.56-3.36-6.44-4.37-.03,1.67,2.85,4.94,2.96,6.15.04.45-.58.91-1.01.78-.63-1.03-4.11-7.34-3.96-7.96.19-.78,1.27-.73,1.9-.54,1.58.48,4.12,3.29,5.87,3.96-.26-1.63-2.51-4.29-2.72-5.68-.11-.74.67-1.04,1.13-.75Z"/>
        <path class="cls-1" d="M56.64,3.44c5.56-.95,6.71,7.45,2.83,9.06-6.6,2.73-8.53-8.08-2.83-9.06ZM56.89,4.63c-3.91.68-2.12,9.08,2.15,6.7,2.33-1.3,1.46-7.33-2.15-6.7Z"/>
        <path class="cls-1" d="M108.73,18.06c3.11-.53,6.01,2.56,4.67,5.62-.34.78-1.88,2.46-2.6,2.91-3.11,1.92-7.11-1.03-6.21-4.52.36-1.4,2.69-3.76,4.14-4.01ZM106.47,25.11c2.75,2.86,7.91-2.68,5.08-5.19s-7.41,2.77-5.08,5.19Z"/>
        <path class="cls-1" d="M3.7,80.98c-.97-3.32-.74-7.02,3.44-7.4,4.67-.42,5.42,2.14,5.55,6.25-.27.37-8.6,1.39-8.99,1.15ZM11.59,78.86c-.34-.61-.18-1.29-.34-1.93-.79-3.1-6.2-2.49-6.81.19-.11.47-.14,2.36.35,2.47,1.51.36,5.07-.88,6.8-.73Z"/>
        <path class="cls-1" d="M68.23,2.66h3.96c.65,0,2.13,1.23,2.48,1.83.84,1.43.77,4.35-.2,5.72-.35.5-1.72,1.56-2.28,1.56h-3.84c-.26,0-.34-.59-.37-.83-.29-2.45.66-5.69.25-8.28ZM69.43,3.98c-.26.84,0,5.3,0,6.59,3.45.99,5.29-1.93,4.2-5.03-.6-1.7-3.92-2.45-4.2-1.56Z"/>
        <path class="cls-1" d="M116.71,30.94c.03,1.43-.89,2.82-1.62,4.01-.44.71-1.24.03-1.25-.53-.02-.99,1.96-2.24,1.67-4.06-.44-2.7-2.59.84-3.76,1.03-.68.11-.94-.4-.8-1.01.09-.4,5.83-4.23,6.5-5.06.86-.61,2.35,1.64,2.67,2.35,1.19,2.58-.99,4.65-3.4,3.28ZM116.54,29.66c2.31,1.93,3.58-1.78,1.6-2.69-.53-.24-2.07.89-2.29,1.33-.17.33.46,1.17.69,1.36Z"/>
        <path class="cls-1" d="M16.63,45.08c.16,1.87-1.63,1.07-3,1.2s-2.09.44-2.51,1.8c-.07.38,5.47,1.35,3,2.75-.93-.58-7.97-2.85-8.07-3.28-.14-.6.85-2.98,1.25-3.52,1.53-2.05,4.54-.99,4.29,1.52.07.1.7-.48.84-.48h4.2ZM10.13,47.7c1.79-3.63-1.96-4.81-2.86-.96l2.86.96Z"/>
        <path class="cls-1" d="M123.43,82.93c-.57-2.18,1.96-1.16,2.59-1.72.26-.23.7-3.31.41-3.79-.39-.64-2.35-.46-1.8-2.15l.95.13c.93.78,7.46,3.97,7.66,4.58.27.8-.11,1.25-.82,1.51-2.36.89-6.43.82-8.99,1.44ZM131.59,80.06l-3.84-1.92-.48,2.87c1.18-.19,2.49-.27,3.65-.55.24-.06.72-.07.67-.41Z"/>
        <path class="cls-1" d="M13.75,52.74c.35,2.26-1.37,1.04-2.4,1.55-.51.25-1.07,3.02-.92,3.55.23.8,1.79.78,1.89,1.74.03.3-.1.78-.37.83-.47.09-7.86-4.75-8-5.2-.18-.59-.01-1.25.62-1.45l9.19-1.01ZM9.91,54.42l-4.32.6c.61.3,3.36,2.5,3.84,2.04l.48-2.64Z"/>
        <path class="cls-1" d="M123.68,55.13c-.11-.08-.29-.91-.15-1.19.22-.41,1.69-1.09,1.78-1.24.1-.17-.85-3.33-1.04-3.56-.42-.5-2.08-.12-2.76-.23v-1.2c1.15-.02,9.42.01,9.74.46.24.35.17,1.24-.12,1.59-2.17,1.25-4.34,3.92-6.41,5.1-.24.14-.83.41-1.04.26ZM129.67,48.91h-4.32l1.08,2.87c.84-.8,2.01-1.44,2.84-2.2.24-.21.51-.21.4-.68Z"/>
        <path class="cls-1" d="M8.47,64.96c1.37.13,3.87-.57,3.36,1.44l-8.9-.58c-2.04-6.61,6.35-7.92,5.53-.85ZM7.27,64.73c.24-1.29-.11-3.21-1.78-3.11-1.83.1-1.41,1.6-1.82,2.87l3.6.24Z"/>
        <path class="cls-1" d="M31.97,13.94c.01.26.36.73.23.91-.25.36-2.76,1.48-2.8,2.07-.02.24,1.22,1.96,1.5,1.98.54-.03,2.71-2.4,3-1.26.23.9-1.95,1.7-2.38,2.39.43.25,1.31,2.16,1.45,2.25.86.5,3.63-3.11,4.04-1.27.06.29-3.7,2.99-3.95,2.99-.43,0-.69-.47-.94-.75-.53-.6-4.39-5.98-4.43-6.37-.06-.57,3.82-3.27,4.27-2.94Z"/>
        <path class="cls-1" d="M126.79,74.07c-.19.18-.94-.07-1.21-.34-.65-.66-.79-2.23-.68-3.11.54-4.29,7.96-4.21,9.22-.62.4,1.15.3,4.15-1.23,4.28-1.23.1.36-1.99.36-2.73,0-3.48-7.48-4.01-7.18.24.04.57.97,2.05.73,2.28Z"/>
        <path class="cls-1" d="M101.35,16.32c.59.31,2.86,1.27,2.64,2.04-.37,1.27-2.66-1.19-3.21-1.06-.89.21-1.69,4.52-3.26,2.48.71-.93,4.4-7.36,4.96-7.5.42-.11,3.82,2.05,3.89,2.27.63,2.04-2.66-.46-2.85-.52-1.07-.35-1.59,1.54-2.17,2.29Z"/>
        <path class="cls-1" d="M18.55,41.72c-.46.34-6.31-3.83-7.43-3.83-.14.61-1.13,2.99-1.82,1.91-.24-.37-.03-.57.08-.9.16-.49,2.67-4.85,2.93-4.99,2.09-1.08-.24,2.59-.13,2.77l6.27,3.58c.5.15.25,1.34.11,1.45Z"/>
        <path class="cls-1" d="M133.75,60.41c-1.6.39-1.07-1.58-1.45-2.63-1.1-.02-7.76,1.59-8.15,1.19.05-.28-.09-1.08.01-1.19.27-.28,6.72-.97,7.68-1.32.6-.37-1.15-3.32.57-2.99.54.11,1.39,6,1.34,6.93Z"/>
        <path class="cls-1" d="M48.31,6.74c-.29.32,2.28,6.5,2.4,7.57.05.48-.96.88-1.26.28-1-2.01-1.64-4.95-2.34-7.13l-2.73.74c-.38-.42-.57-.85.01-1.17.62-.34,4.9-1.84,5.54-1.92s1.04.4.67.93c-.2.28-1.83.66-2.29.71Z"/>
        <path class="cls-1" d="M80.19,3.66c.39.62-1.48,7.75-1.41,9.07-.1.09-1.39-.18-1.44-.25-.27-.38,1.78-7.91,1.68-9.1.09-.08,1.09.15,1.16.27Z"/>
        <path class="cls-1" d="M134.23,64.24l-8.97.68c-.57-.19-.59-1.18,0-1.37,2.31.02,4.62-.4,6.91-.52,1.12-.06,2.3-.27,2.05,1.21Z"/>
        <path class="cls-1" d="M85.97,14.38c-.39.27-1.42-.09-1.14-.75.62-.95,2.3-7.79,2.62-8.06.21-.18,1.51-.08,1.38.53-.55.97-2.5,8.04-2.87,8.29Z"/>
        <path class="cls-1" d="M11.83,70.71c-2.12.06-4.25-.08-6.37,0-.86.03-3.15.9-3-.59.04-.39.22-.57.62-.6l8.16-.24c.78.07.61.85.6,1.44Z"/>
        <path class="cls-1" d="M14.02,31.62c-.3-.52.52-1.47,1.09-.99,1.6,1.61,5.02,3.05,6.44,4.61.59.65.43,1.29-.47,1.21-1.1-.11-5.55-4.32-7.06-4.83Z"/>
        <path class="cls-1" d="M57.67,131.82l1.45-6.58c-.16-.79,1.27-.52,1.42-.36.32.35-1.66,8.81-2.01,9.12-.32.29-1.3-.06-1.56-.41-.78-1.05-1.84-7.17-2.18-7.53-.39-.4-.41.09-.49.35-.36,1.22-.86,5.73-1.31,6.36-.33.45-.87.11-1.3-.03.19-1.1,1.51-8.71,1.88-8.97.7-.49,1.6-.02,1.98.68,1,1.86,1.4,5.27,2.11,7.36Z"/>
        <path class="cls-1" d="M80.23,133.97c-1.66.62-1.7-1.82-2.56-2.11-1.04-.36-2.45.38-3.54.19-.53,1.09,0,3.08-1.82,2.89.05-1.26,1.62-9.63,2.15-9.95.41-.24,1.22-.22,1.57.12.34,1.21,4.74,8.34,4.2,8.87ZM77.35,130.62l-2.04-4.07c-.47.21-.88,3.83-1.08,4.55l3.12-.48Z"/>
        <path class="cls-1" d="M45.54,120.61c.17-.03,1.04.33,1.06.53.09.9-2.45,5.33-2.36,6.7s1.64,2.29,2.94,2.01c1.75-.38,2.63-5.39,3.41-6.9,1.03-.62,1.46-.13,1.21.96-.22.94-1.74,4.89-2.24,5.67-1.2,1.84-3.22,1.91-5.02.84-1.55-.92-1.78-2.23-1.45-3.95.12-.64,2.14-5.82,2.45-5.87Z"/>
        <path class="cls-1" d="M70.63,127.02c-.15.17-3.73-2.01-3.61.61.09,2.02,4.59,1.54,4.08,5.01-.46,3.13-5.81,2.68-5.95.94-.1-1.24,1.64.01,2.06.1,1.16.24,2.5-.11,2.48-1.51-.02-1.91-5.72-2.04-3.83-5.71.9-1.75,5.17-1.94,4.77.57Z"/>
        <path class="cls-1" d="M92.69,121.5c-.08.1-2.35.56-2.4.88l2.65,7.42c-.02.6-.75.59-1.19.82l-2.77-7.43c-.54-.68-3.62,1.63-3.01-.59.09-.32,5.44-1.76,6.14-2.28.56-.1.77.95.57,1.18Z"/>
        <path class="cls-1" d="M84.23,122.98c.44-.04.55.39.68.69.51,1.17,2.07,6.4,2.23,7.61.13,1-.42,1.36-1.28.78l-2.48-8.32c-.07-.35.55-.74.85-.76Z"/>
        <polygon class="cls-1" points="63.91 125.11 62.96 134.3 61.75 134.46 62.47 125.11 63.91 125.11"/>
        <path class="cls-1" d="M81.94,133.22c-.72-.45-.09-2.43,1.18-1.54.81.57-.13,2.2-1.18,1.54Z"/>
        <path class="cls-1" d="M71.04,53.27c5.91-1.35,9.56,8.51,9.91,13.01.28,3.7-.86,9.81-5.93,8.32-5.37-1.59-9.96-17.31-4.75-20.9.26-.18.44-.35.77-.43Z"/>
        <path class="cls-1" d="M61.19,88.78c2.79-.05,5.6,3.34,6.68,5.66s2.4,7.18-.7,8.4c-5.39,2.12-10.48-7.53-9.1-11.96.39-1.25,1.84-2.08,3.12-2.11Z"/>
        <path class="cls-1" d="M36,65.01c1.56-.47,2.66.88,3.39,2.03,1.77,2.78,3.99,12.08,2.31,14.92-1.4,2.35-3.87-.27-4.76-1.68-1.76-2.76-3.07-8.11-2.75-11.33.1-.98.75-3.61,1.82-3.93Z"/>
        <path class="cls-1" d="M49.45,36.26c4.7-.69,5.18,7.03,4.15,10.14-.58,1.76-2.17,3.95-4.21,3.95-5.22,0-5.83-13.23.06-14.09Z"/>
        <path class="cls-1" d="M98.17,77.47c1.33-.11,2.24,1.46,2.64,2.53,1.2,3.14,1.26,9.12-1.04,11.79-1.24,1.43-3.01,1.85-4.18.14-1.94-2.85-2.03-14.06,2.58-14.45Z"/>
        <path class="cls-1" d="M80.17,29.79c3.46-.7,7.32,4.63,8.24,7.48,2.1,6.52-3.44,5.4-6.62,1.81-1.54-1.74-5.67-8.48-1.62-9.29Z"/>
        <path class="cls-1" d="M102.47,48.48c2.85-.25,5.46,8,5.78,10.2.22,1.48.78,6.84-2.03,5.62s-5.17-10.38-5.12-13.11c.01-.81.37-2.62,1.38-2.71Z"/>
        <path class="cls-1" d="M84.01,104.56c6.38-1.03,4.94,8.26-.29,8.1-4.63-.14-3.89-7.42.29-8.1Z"/>
        <path class="cls-1" d="M32.49,91.82c3.03,0,5.59,4.77,6.74,7.24,2.22,4.77.92,6.67-2.92,2.43-2.1-2.32-4.59-6.51-3.83-9.68Z"/>
        <path class="cls-1" d="M26.93,48.93c.85,1.93.88,4.26.75,6.34-.07,1.06-.87,7.07-2.5,6.8-2.01-1.8-1.75-5.98-1.32-8.46.28-1.64,1.02-4.7,3.07-4.68Z"/>
        <path class="cls-1" d="M60.5,20.93c5.02-.55,6.54,5.95,1.61,6.41-5.2.49-6.64-5.87-1.61-6.41Z"/>
        <path class="cls-1" d="M53.04,109.34c2.34-.51,7.42,3.26,7.52,5.59.12,2.82-4.58.47-5.78-.48-1.04-.83-4.54-4.51-1.74-5.11Z"/>
        <path class="cls-1" d="M37.45,29.79c3.38-.66.31,5.64-.78,6.91-.69.8-2.68,2.54-3.36.95-.84-1.99,1.91-7.42,4.13-7.86Z"/>
        <path class="cls-1" d="M115.75,80.78c-.45-.3-.78-6.78-.72-7.78.04-.73.49-4.84,1.53-4.66,1.49.26,1.45,6.77,1.34,8.01-.06.71-.89,5.29-2.15,4.44Z"/>
        <path class="cls-1" d="M20.11,72.63c.43-.1.8.64.96.96.92,1.81,2.76,9,2.53,10.92-.12,1.03-.66,1.18-1.26.28-1.48-2.22-3.36-8.83-2.61-11.33.07-.23.07-.75.38-.82Z"/>
        <path class="cls-1" d="M105.43,101.63c-.19-2.15.29-4.2,1.16-6.15.42-.96,2.73-4.91,3.53-2.49.67,2.01-1.8,8.86-4.69,8.64Z"/>
        <path class="cls-1" d="M108.79,41.72c-.75.74-3.58-2.9-4.03-3.52-1.37-1.88-2.75-4.23-3.16-6.54,1.97.37,3.4,2.23,4.51,3.76,1.27,1.74,2.86,4.09,2.68,6.31Z"/>
        <path class="cls-1" d="M90.31,25.67c-1.65.26-3.09-.59-4.4-1.48-.74-.51-4.09-3.15-3.42-4.05,1.66-.75,4.08.79,5.4,1.83,1.05.83,2.67,2.24,2.42,3.69Z"/>
        <path class="cls-1" d="M115.63,48.19c1.54,1.37,2.33,3.79,2.88,5.75.15.54,1.51,5.54.48,5.51-.87-.03-3.62-9.82-3.36-11.25Z"/>
        <path class="cls-1" d="M74.42,117.5c.84-.07,3.77.2,3.39,1.47-.35,1.18-5.33,1.62-6.12.4-.74-1.15,1.96-1.8,2.73-1.86Z"/>
        <path class="cls-1" d="M41.11,112.65c-.43.43-3.59-2.07-4.08-2.51-1.24-1.11-2.41-2.43-3.12-3.95.66-.49,3.74,2.21,4.32,2.75.43.4,3.33,3.26,2.88,3.72Z"/>
        <path class="cls-1" d="M26.71,99.95c-.46.1-.57-.24-.82-.5-.78-.85-4.73-7.59-4.22-8.12.46-.1.57.24.82.5.74.81,4.72,7.58,4.22,8.12Z"/>
        <path class="cls-1" d="M45.27,21.43c.72-.85,5.31-2.64,5.68-1.38.33,1.12-2.69,2.31-3.54,2.45-.9.14-3.31.29-2.14-1.07Z"/>
        <path class="cls-1" d="M23.35,41.72c.58.77-1.81,6.98-2.53,7.89-.23.28-.4.58-.82.49.47-2.53,1.23-5.82,2.74-7.93.2-.28,0-.59.62-.45Z"/>
        <path class="cls-1" d="M16.63,59.93c.04-.16-.1-.75.24-.36-.12,2.81.25,5.85-.25,8.61-.05.29-.13.57-.47.61-.23-1.35-.31-2.7-.24-4.07,0-.04.21-.2.22-.38.11-1.63.13-2.78.5-4.41Z"/>
        <path class="cls-1" d="M70.75,16.08c.31.04,1.91.59,2.04.84.1.42-.16.39-.47.48-.97.28-4.98.11-5.41-.84-.24-.13.21-.48.24-.48,1.09,0,2.58-.14,3.6,0Z"/>
        <path d="M24.19,21.59c.16.08.16.16,0,.24v-.24Z"/>
        <path d="M56.89,4.63c3.61-.63,4.48,5.4,2.15,6.7-4.27,2.38-6.06-6.02-2.15-6.7Z"/>
        <path d="M106.47,25.11c-2.33-2.43,2.28-7.68,5.08-5.19s-2.34,8.05-5.08,5.19Z"/>
        <path d="M11.59,78.86c-1.74-.15-5.3,1.09-6.8.73-.49-.12-.45-2.01-.35-2.47.61-2.68,6.01-3.28,6.81-.19.16.64,0,1.33.34,1.93Z"/>
        <path d="M69.43,3.98c.28-.9,3.6-.14,4.2,1.56,1.09,3.1-.75,6.03-4.2,5.03,0-1.29-.26-5.75,0-6.59Z"/>
        <path d="M116.54,29.66c-.23-.19-.86-1.03-.69-1.36.22-.44,1.77-1.57,2.29-1.33,1.98.9.71,4.61-1.6,2.69Z"/>
        <path d="M10.13,47.7l-2.86-.96c.91-3.86,4.65-2.67,2.86.96Z"/>
        <path d="M131.59,80.06c.06.34-.43.35-.67.41-1.16.28-2.47.35-3.65.55l.48-2.87,3.84,1.92Z"/>
        <path d="M9.91,54.42l-.48,2.64c-.48.46-3.23-1.74-3.84-2.04l4.32-.6Z"/>
        <path d="M129.67,48.91c.11.46-.17.46-.4.68-.83.76-2,1.4-2.84,2.2l-1.08-2.87h4.32Z"/>
        <path d="M7.27,64.73l-3.6-.24c.41-1.27-.02-2.77,1.82-2.87,1.67-.1,2.02,1.82,1.78,3.11Z"/>
        <path d="M77.35,130.62l-3.12.48c.2-.72.61-4.34,1.08-4.55l2.04,4.07Z"/>
      </g>
    </g>
  </g>
</svg>